<svg width="16" height="16" viewBox="0 0 16 16" fill="none" xmlns="http://www.w3.org/2000/svg">
<path d="M15.8333 13.8334H1.5V0.833354C1.5 0.741687 1.425 0.666687 1.33333 0.666687H0.166667C0.075 0.666687 0 0.741687 0 0.833354V15.1667C0 15.2584 0.075 15.3334 0.166667 15.3334H15.8333C15.925 15.3334 16 15.2584 16 15.1667V14C16 13.9084 15.925 13.8334 15.8333 13.8334ZM3 12.5H14.1667C14.2583 12.5 14.3333 12.425 14.3333 12.3334V3.25002C14.3333 3.10002 14.1521 3.0271 14.0479 3.13127L9.66667 7.51252L7.05417 4.92919C7.02284 4.89817 6.98054 4.88077 6.93646 4.88077C6.89238 4.88077 6.85007 4.89817 6.81875 4.92919L2.88125 8.87919C2.86596 8.89451 2.85385 8.91271 2.84562 8.93273C2.8374 8.95275 2.83322 8.97421 2.83333 8.99585V12.3334C2.83333 12.425 2.90833 12.5 3 12.5Z" fill="#40BB15"/>
</svg>
