<svg width="71" height="76" viewBox="0 0 71 76" fill="none" xmlns="http://www.w3.org/2000/svg">
<path d="M0.5 10C0.5 4.47715 4.97715 0 10.5 0H60.5C66.0228 0 70.5 4.47715 70.5 10V66C70.5 71.5228 66.0228 76 60.5 76H10.5C4.97715 76 0.5 71.5228 0.5 66V10Z" fill="#E74040"/>
<path d="M22.1667 33.2C22.1663 31.2671 22.9432 29.4153 24.3224 28.0611C25.7017 26.707 27.5675 25.9642 29.5 26C31.7898 25.9879 33.9747 26.9589 35.5 28.6667C37.0254 26.9589 39.2102 25.9879 41.5 26C43.4326 25.9642 45.2983 26.707 46.6776 28.0611C48.0568 29.4153 48.8337 31.2671 48.8333 33.2C48.8333 40.3413 40.328 45.7333 35.5 50C30.6827 45.6973 22.1667 40.3467 22.1667 33.2Z" fill="white"/>
</svg>
