<svg width="70" height="76" viewBox="0 0 70 76" fill="none" xmlns="http://www.w3.org/2000/svg">
<path d="M0 10C0 4.47715 4.47715 0 10 0H60C65.5229 0 70 4.47715 70 10V66C70 71.5229 65.5229 76 60 76H10C4.47715 76 0 71.5229 0 66V10Z" fill="#E74040"/>
<path d="M37.2133 27.7333C37.0866 27.1124 36.5404 26.6666 35.9067 26.6666H26.3333C25.597 26.6666 25 27.2636 25 28V48C25 48.7363 25.597 49.3333 26.3333 49.3333C27.0697 49.3333 27.6667 48.7363 27.6667 48V40H35.1333L35.4533 41.6C35.5743 42.2243 36.1241 42.6731 36.76 42.6666H43.6667C44.403 42.6666 45 42.0697 45 41.3333V30.6666C45 29.9302 44.403 29.3333 43.6667 29.3333H37.5333L37.2133 27.7333Z" fill="white"/>
</svg>
